<?xml version="1.0" encoding="utf-8"?>
<!DOCTYPE svg PUBLIC "-//W3C//DTD SVG 1.0//EN" "http://www.w3.org/TR/2001/REC-SVG-20010904/DTD/svg10.dtd">
<svg version="1.0" xmlns="http://www.w3.org/2000/svg" width="1024px" height="747px" viewBox="0 0 1024 747" preserveAspectRatio="xMidYMid meet">
 <g fill="#080807">
  <path d="M297.77 645.62 c-4.15 -1.82 -6.31 -5.88 -6.31 -12.11 0 -9.17 4.41 -13.41 14.01 -13.41 4.76 0 10.21 2.42 10.21 4.50 0 0.52 0.86 0.17 1.99 -0.86 2.59 -2.42 6.05 -3.63 10.64 -3.63 8.82 0 13.32 4.50 13.32 13.41 0 8.91 -4.50 13.41 -13.32 13.41 -4.50 0 -8.04 -1.21 -10.55 -3.55 -1.64 -1.56 -1.90 -1.56 -2.42 -0.35 -1.30 3.46 -11.94 5.02 -17.56 2.59z m13.49 -9.08 c3.46 0 3.55 -0.09 3.55 -2.85 0 -2.77 -0.09 -2.85 -2.94 -2.51 -1.82 0.17 -3.81 -0.26 -5.10 -1.12 -2.08 -1.38 -2.34 -1.30 -3.98 0.35 -2.34 2.34 -2.25 3.89 0 6.05 1.38 1.30 2.25 1.56 3.46 0.95 0.86 -0.52 3.11 -0.86 5.02 -0.86z m20.67 -2.08 c0.43 -1.90 -2.25 -4.84 -4.24 -4.84 -0.86 0 -2.25 1.04 -3.11 2.25 -1.47 2.25 -1.38 2.34 0.95 4.41 2.16 1.90 2.59 1.99 4.32 0.86 0.95 -0.69 1.99 -1.90 2.08 -2.68z"/>
  <path d="M343.09 646.40 c-0.35 -0.35 -0.61 -6.23 -0.61 -13.06 l0 -12.37 4.24 0 c3.98 0 4.32 0.17 7.35 4.06 l3.11 3.98 0 -3.98 0 -4.06 4.32 0 4.32 0 0 12.54 0 12.54 -4.24 0 c-3.98 0 -4.50 -0.26 -7.18 -3.63 l-2.85 -3.63 -0.43 3.81 c-0.43 3.81 -0.52 3.89 -3.89 4.15 -1.99 0.17 -3.81 0 -4.15 -0.35z"/>
  <path d="M369.56 646.31 c-0.86 -0.26 -1.12 -3.72 -1.12 -12.89 l0 -12.45 3.72 0 c3.29 0 3.98 0.43 7.09 3.98 l3.55 4.06 -0.35 -3.46 c-0.43 -4.15 1.12 -5.71 5.19 -5.28 l2.85 0.26 0.26 12.80 0.26 12.71 -4.24 0 c-3.98 0 -4.32 -0.17 -7.18 -3.98 l-2.94 -3.98 -0.26 4.41 c-0.26 4.32 -0.35 4.41 -3.03 4.32 -1.56 0 -3.29 -0.26 -3.81 -0.52z"/>
  <path d="M419.72 645.62 c-1.56 -0.69 -3.63 -2.51 -4.58 -4.06 l-1.73 -2.85 0 3.72 0 3.63 -9.95 0 -9.95 0 0 -12.54 0 -12.54 9.95 0 9.95 0 0 3.72 0 3.63 1.73 -2.85 c0.95 -1.56 3.11 -3.46 4.76 -4.15 3.37 -1.38 10.55 -1.64 13.75 -0.35 1.47 0.52 2.25 0.52 2.25 0 0 -0.95 13.23 -1.12 24.04 -0.26 l7.09 0.52 0 12.37 0 12.45 -4.32 0 -4.32 0 0 -8.65 0 -8.65 -3.46 0 -3.46 0 0 8.65 0 8.65 -4.32 0 -4.24 0 -0.26 -8.39 c-0.26 -8.13 -0.35 -8.48 -2.34 -8.74 -1.12 -0.17 -2.42 0.09 -2.94 0.61 -1.21 1.21 -7.09 1.21 -9.17 0.09 -1.21 -0.61 -2.08 -0.35 -3.46 0.95 -4.06 3.81 -1.30 6.40 6.75 6.40 l5.71 0 0.26 3.46 c0.26 3.29 0 3.63 -2.85 5.02 -3.72 1.73 -11.07 1.90 -14.88 0.17z m-6.31 -12.11 l0 -4.76 -5.79 0.17 -5.88 0.17 5.45 0.26 5.36 0.35 0 3.81 0 3.81 -5.36 0.35 -5.45 0.26 5.88 0.17 5.79 0.17 0 -4.76z"/>
  <path d="M501.19 646.23 c-5.45 -1.82 -7.35 -5.10 -7.35 -12.54 0 -10.46 3.89 -14.01 14.70 -13.41 8.48 0.43 8.56 0.61 8.56 13.32 l0.09 10.81 -3.03 1.30 c-3.03 1.21 -9.86 1.47 -12.97 0.52z m7.52 -12.02 c0.43 -4.58 -0.61 -5.97 -3.11 -4.24 -3.46 2.25 -3.72 3.89 -1.12 6.23 1.30 1.12 2.77 2.08 3.20 2.08 0.35 0 0.86 -1.82 1.04 -4.06z"/>
  <path d="M552.82 645.45 c-3.81 -1.82 -5.36 -5.19 -5.36 -11.50 l0 -5.19 -3.03 0 -3.03 0 0 8.74 0 8.65 -4.06 -0.26 -4.15 -0.26 -0.26 -8.39 -0.26 -8.48 -2.94 0 -3.03 0 0 -4.32 0 -4.32 7.26 0 c9.77 0 15.22 0.78 15.22 2.25 0 0.95 0.78 0.78 3.20 -0.52 4.15 -2.16 11.68 -2.34 15.83 -0.17 3.81 1.90 6.05 6.23 6.05 11.85 0 8.82 -4.76 13.41 -13.84 13.41 -2.59 0 -6.05 -0.69 -7.61 -1.47z m10.21 -8.91 c2.08 -2.08 2.16 -3.72 0.35 -5.54 -1.73 -1.82 -3.72 -1.73 -5.71 0.09 -1.99 1.82 -1.99 2.77 0.35 5.19 2.25 2.42 2.85 2.42 5.02 0.26z"/>
  <path d="M575.14 633.86 l0 -12.97 4.06 0.26 c3.89 0.26 4.15 0.43 6.75 4.76 l2.68 4.50 2.85 -4.67 c2.77 -4.58 3.03 -4.76 6.66 -4.76 l3.89 0 -0.26 12.80 -0.26 12.71 -3.46 0 c-3.29 0 -3.46 -0.17 -3.72 -2.94 -0.26 -2.85 -0.35 -2.85 -1.56 -1.04 -1.64 2.34 -7.01 2.51 -8.65 0.35 -1.04 -1.38 -1.12 -1.30 -1.21 1.30 0 2.68 -0.09 2.77 -3.89 2.77 l-3.89 0 0 -13.06z"/>
  <path d="M609.21 645.54 c-3.98 -1.99 -5.54 -5.28 -5.54 -12.28 0 -4.84 0.35 -6.49 1.90 -8.39 2.34 -3.03 6.49 -4.76 11.50 -4.76 8.91 0 13.41 4.50 13.41 13.41 0 9.17 -4.50 13.41 -14.01 13.41 -2.51 0 -5.79 -0.61 -7.26 -1.38z m11.33 -12.02 c0 -1.47 -0.69 -2.85 -1.82 -3.55 -1.56 -1.12 -2.08 -1.04 -4.06 0.61 -1.30 0.95 -2.34 2.34 -2.34 2.94 0 0.61 1.04 1.99 2.34 2.94 1.99 1.64 2.51 1.73 4.06 0.61 1.12 -0.69 1.82 -2.08 1.82 -3.55z"/>
  <path d="M631.96 646.31 c-0.35 -0.26 -0.61 -6.14 -0.61 -12.97 l0 -12.37 8.91 0 c8.48 0 9.08 0.09 11.07 2.25 2.16 2.34 2.16 1.82 1.47 16.78 l-0.26 6.49 -3.63 0.26 c-3.72 0.26 -4.15 0 -7.52 -4.58 -1.30 -1.64 -1.30 -1.64 -1.38 0.95 0 1.73 -0.52 2.94 -1.38 3.29 -1.82 0.69 -5.97 0.69 -6.66 -0.09z m10.64 -14.96 c1.12 -0.78 1.12 -0.95 0 -1.73 -1.90 -1.30 -2.59 -1.04 -2.59 0.86 0 1.90 0.69 2.16 2.59 0.86z"/>
  <path d="M654.70 634.03 l0 -12.89 5.71 -0.61 c7.87 -0.86 12.37 0.17 14.62 3.55 l1.82 2.68 1.47 -2.08 c2.68 -3.46 6.40 -4.84 12.37 -4.41 3.89 0.26 6.23 0.86 8.04 2.25 l2.59 1.90 0.26 -1.99 c0.26 -1.64 0.78 -1.90 4.15 -1.90 3.81 0 3.81 0 5.10 4.15 l1.30 4.15 1.47 -3.72 c1.38 -3.63 1.47 -3.72 5.54 -3.72 4.06 0 4.15 0.09 5.62 3.81 l1.47 3.89 1.30 -3.89 c1.21 -3.72 1.38 -3.81 5.28 -4.06 l4.06 -0.26 0 3.29 c0 1.82 -1.38 7.44 -3.20 12.63 l-3.20 9.25 -4.24 0 c-4.06 0 -4.15 -0.09 -5.71 -3.63 -1.12 -2.51 -1.82 -3.29 -2.16 -2.42 -0.26 0.69 -0.86 2.34 -1.30 3.72 -0.86 2.08 -1.30 2.34 -5.19 2.34 l-4.32 0 -1.99 -6.14 -1.99 -6.14 -0.61 3.11 c-1.47 6.83 -5.71 10.03 -13.23 10.03 -7.26 0 -13.41 -4.32 -13.41 -9.43 -0.09 -1.99 -0.17 -2.08 -0.95 -0.69 -0.69 1.12 -0.61 1.90 0.09 2.77 1.56 1.82 0.69 6.83 -1.12 7.18 -3.46 0.69 -7.09 -0.69 -8.82 -3.29 -2.25 -3.37 -3.03 -3.29 -3.03 0.43 0 3.03 0 3.03 -3.89 3.03 l-3.89 0 0 -12.89z m38.57 0.52 c0.61 -1.82 -1.82 -4.93 -3.81 -4.93 -1.64 0 -4.50 2.51 -4.50 3.98 0 0.61 1.04 1.90 2.25 2.85 1.82 1.47 2.51 1.56 3.89 0.69 0.95 -0.61 1.90 -1.73 2.16 -2.59z m-27.68 -5.10 c-1.82 -1.04 -3.63 0.35 -2.77 1.82 0.43 0.69 1.12 0.69 2.42 0 1.73 -0.95 1.73 -1.04 0.35 -1.82z"/>
  <path d="M468.93 633.77 l0.26 -12.37 3.89 -0.26 c3.63 -0.26 4.06 -0.09 7.09 3.46 l3.29 3.72 0 -3.63 0 -3.72 4.32 0 4.32 0 0 12.54 0 12.54 -4.15 0 c-3.98 0 -4.32 -0.17 -7.18 -4.06 l-2.94 -4.15 -0.26 4.15 -0.26 4.06 -4.32 0 -4.32 0 0.26 -12.28z"/>
  <path d="M393.34 602.03 c-6.57 -2.16 -12.45 -5.97 -17.90 -11.76 -8.04 -8.56 -10.90 -17.56 -10.29 -32.61 0.35 -8.65 0.61 -9.69 3.72 -16 4.32 -8.74 10.46 -14.96 18.77 -18.85 14.36 -6.75 34.59 -6.05 47.74 1.64 5.45 3.20 12.37 11.07 15.48 17.56 2.77 5.79 2.77 5.97 2.77 19.29 0 13.32 0 13.49 -2.77 19.29 -5.02 10.55 -15.05 18.85 -26.55 21.88 -6.66 1.82 -24.82 1.56 -30.96 -0.43z m25.60 -16.69 c4.67 -1.82 11.85 -8.91 14.36 -14.10 7.26 -14.79 -4.41 -33.90 -21.79 -35.63 -13.23 -1.30 -27.50 11.85 -27.50 25.43 0 7.52 4.93 16.52 11.33 20.76 7.96 5.28 16 6.40 23.61 3.55z"/>
  <path d="M472.48 603.07 c-0.86 -0.35 -1.12 -9.60 -1.12 -42.29 l0 -41.86 9.08 0 9.08 0 0 33.73 0 33.73 21.19 0 21.28 0 -0.26 8.48 -0.26 8.39 -28.97 0.17 c-15.91 0.09 -29.49 -0.09 -30.01 -0.35z"/>
  <path d="M256 560.86 l0 -42.03 7.96 0.26 7.96 0.26 14.79 23.96 c8.04 13.23 14.88 24.04 15.14 24.04 0.43 0 2.68 -3.55 22.05 -34.85 l8.48 -13.66 7.44 0.26 7.44 0.26 0.26 41.77 0.17 41.69 -8.65 0 -8.65 0 0 -23.09 0 -23.01 -11.16 18.08 c-12.28 19.89 -12.63 20.24 -19.72 18.85 l-4.15 -0.78 -10.81 -17.64 -10.81 -17.64 -0.26 22.66 -0.17 22.57 -8.65 0 -8.65 0 0 -41.95z"/>
  <path d="M545.90 561.12 l0.26 -41.77 8.91 -0.26 8.82 -0.26 0 42.03 0 41.95 -9.08 0 -9.08 0 0.17 -41.69z"/>
  <path d="M576.86 599.96 c0 -3.55 2.51 -9.34 21.71 -49.90 l14.53 -30.70 8.82 0 8.74 0 8.65 18.16 c21.88 46.27 27.50 58.98 27.50 62.18 l0 3.20 -9.25 -0.26 -9.17 -0.26 -4.06 -9.08 -4.15 -9.08 -18.42 0 -18.42 0 -4.06 9.08 -4.15 9.08 -9.17 0.26 -9.08 0.26 0 -2.94z m54.57 -34.51 c-1.82 -4.50 -9.69 -20.84 -9.95 -20.50 -0.43 0.61 -10.03 21.54 -10.03 21.97 0 0.26 4.67 0.43 10.38 0.43 l10.38 0 -0.78 -1.90z"/>
  <path d="M679.78 560.86 l0 -41.95 7.70 0 c7.18 0 7.87 0.17 9.34 2.08 0.86 1.21 7.78 12.28 15.31 24.74 7.52 12.37 13.84 22.40 13.92 22.31 0.61 -0.78 28.02 -45.58 28.89 -47.14 0.95 -1.82 1.56 -1.99 9.17 -1.99 l8.22 0 0 41.95 0 42.03 -8.82 -0.26 -8.91 -0.26 -0.26 -22.40 -0.17 -22.40 -10.38 16.78 c-5.71 9.25 -11.24 17.47 -12.37 18.42 -1.47 1.30 -2.85 1.47 -6.40 1.12 -2.51 -0.26 -4.93 -0.69 -5.36 -1.04 -0.52 -0.26 -5.62 -8.39 -11.50 -17.99 l-10.64 -17.47 -0.26 22.75 -0.17 22.66 -8.65 0 -8.65 0 0 -41.95z"/>
  <path d="M428.63 479.48 c-3.98 -1.47 -21.36 -12.80 -47.22 -30.88 -43.07 -30.18 -48.09 -34.94 -51.46 -49.12 -1.12 -4.76 -1.30 -17.56 -1.30 -89.43 0 -92.19 -0.09 -89.86 5.28 -99.98 5.10 -9.51 9.60 -12.89 41.34 -31.05 16 -9.17 46.01 -26.55 66.68 -38.49 57.69 -33.47 55.44 -32.43 72.22 -32.43 16.95 0 13.41 -1.64 79.91 36.67 24.48 14.10 53.79 31.05 65.21 37.54 23.96 13.66 30.79 19.20 35.11 28.11 5.45 11.16 5.28 7.52 5.28 99.37 0 86.92 -0.09 89.08 -3.63 96.26 -4.24 8.39 -7.09 10.81 -40.30 34.51 -14.27 10.12 -17.04 11.85 -19.46 11.59 l-2.77 -0.26 -0.43 -116.32 c-0.43 -115.37 -0.43 -116.32 -2.25 -119.35 -2.08 -3.63 -6.66 -6.92 -9.60 -6.92 -3.89 0 -7.61 2.85 -21.88 16.78 -39.78 38.83 -72.22 69.45 -75.42 71.26 -4.67 2.51 -14.18 2.68 -19.29 0.26 -2.25 -1.04 -19.11 -16.69 -47.31 -44.02 -24.13 -23.26 -45.23 -42.98 -46.88 -43.76 -2.68 -1.30 -3.37 -1.30 -5.88 -0.26 -4.41 1.82 -8.22 6.75 -9.34 12.02 -0.69 3.29 -0.86 25.43 -0.69 79.83 0.26 73.95 0.26 75.33 1.99 78.27 1.04 1.64 3.20 3.81 4.93 4.76 3.20 1.73 3.20 1.73 5.54 -0.09 1.30 -0.95 3.20 -2.85 4.15 -4.15 1.82 -2.34 1.82 -3.29 2.08 -69.02 0.17 -46.88 0.52 -67.03 1.12 -67.89 0.61 -0.61 2.77 -1.12 5.28 -1.12 l4.32 0 20.41 19.72 c62.10 59.94 61.15 59.07 68.15 60.37 7.09 1.30 11.59 -2.59 83.03 -71.61 8.65 -8.39 8.74 -8.48 12.97 -8.48 2.42 0 4.76 0.43 5.36 1.04 0.78 0.78 1.04 22.66 1.04 93.23 0 85.97 -0.09 92.28 -1.56 95.14 -2.42 4.93 -5.79 6.05 -18.51 6.05 -12.63 0 -16.86 -1.12 -19.98 -5.54 -1.90 -2.68 -1.90 -2.68 -2.34 -50.77 l-0.43 -48.09 -20.32 19.37 c-11.16 10.64 -22.05 20.41 -24.22 21.71 -3.37 1.99 -4.93 2.34 -12.71 2.59 -13.15 0.52 -13.84 0.17 -38.31 -23.35 l-20.32 -19.55 -0.43 68.50 c-0.35 49.73 -0.69 68.84 -1.47 70.14 -1.56 2.68 -5.62 6.31 -8.30 7.26 -3.46 1.30 -13.32 1.04 -17.38 -0.43z"/>
 </g>
 <g fill="#f7f5f1">
  <path d="M0 373.62 l0 -373.62 512 0 512 0 0 373.62 0 373.62 -512 0 -512 0 0 -373.62z m311.09 268.54 c2.94 -1.99 1.38 -3.81 -1.90 -2.34 -5.02 2.34 -10.12 0.26 -11.33 -4.58 -0.69 -2.68 1.04 -7.09 3.20 -8.22 2.25 -1.30 6.23 -1.04 8.30 0.43 1.56 1.12 1.90 1.12 2.85 0 0.86 -1.04 0.52 -1.56 -1.90 -3.03 -1.56 -0.95 -3.72 -1.73 -4.84 -1.73 -3.46 0 -7.87 2.42 -9.69 5.36 -2.16 3.63 -2.16 7.26 0 10.90 3.11 5.10 10.12 6.57 15.31 3.20z m21.45 0.95 c3.46 -1.47 6.49 -5.88 6.49 -9.60 0 -6.23 -6.57 -11.59 -12.80 -10.38 -1.82 0.35 -4.32 1.82 -5.97 3.46 -2.34 2.34 -2.85 3.46 -2.85 6.75 0 4.50 2.34 7.96 6.40 9.77 3.46 1.47 5.10 1.47 8.74 0z m15.83 -5.54 c0.17 -3.46 0.61 -6.23 1.04 -6.23 0.43 0 3.03 2.77 5.71 6.05 2.94 3.63 5.54 6.05 6.49 6.05 1.56 0 1.64 -0.78 1.64 -9.95 0 -9.34 -0.09 -9.95 -1.73 -9.95 -1.47 0 -1.64 0.69 -1.90 7.01 l-0.26 7.09 -5.54 -7.09 c-3.37 -4.24 -6.14 -7.01 -7.09 -7.01 -1.47 0 -1.64 0.86 -1.64 9.77 0 5.45 0.26 10.12 0.61 10.46 1.56 1.47 2.42 -0.61 2.68 -6.23z m26.03 -7.09 c0.43 0 3.03 2.94 5.79 6.49 7.26 9.34 8.13 8.99 8.13 -3.37 0 -9.25 -0.69 -12.37 -2.25 -9.95 -0.35 0.61 -0.52 3.72 -0.43 7.01 0.09 3.46 -0.17 5.88 -0.69 5.88 -0.43 0 -3.29 -2.94 -6.23 -6.49 -2.94 -3.55 -5.88 -6.49 -6.49 -6.49 -1.64 0 -1.73 19.55 -0.09 20.15 0.78 0.26 1.12 -1.47 1.30 -6.49 0.17 -3.72 0.61 -6.75 0.95 -6.75z m57.60 12.37 c1.64 -0.78 2.94 -1.90 2.77 -2.34 -0.35 -0.95 -1.12 -0.95 -6.83 0 -2.85 0.43 -3.55 0.17 -5.88 -2.08 -2.77 -2.77 -3.20 -5.19 -1.56 -8.22 2.08 -3.98 6.05 -5.10 10.64 -3.03 3.03 1.38 4.58 -0.17 2.25 -2.25 -5.88 -5.36 -17.38 0.26 -17.38 8.56 0 5.36 5.45 10.64 10.98 10.81 1.04 0 3.29 -0.69 5.02 -1.47z m79.57 0.26 c2.85 -1.21 3.03 -1.47 3.03 -5.71 0 -3.81 -0.26 -4.41 -1.47 -4.15 -0.95 0.17 -1.47 0.95 -1.30 1.90 0.17 0.86 0.09 2.51 -0.17 3.63 -0.43 1.73 -1.12 2.08 -3.89 2.08 -5.02 0 -7.87 -2.59 -7.87 -7.35 0 -3.03 0.43 -4.15 2.25 -5.54 2.51 -1.99 6.40 -2.34 9.17 -0.86 2.51 1.30 4.24 -0.43 2.25 -2.34 -3.63 -3.63 -13.32 -1.73 -15.83 3.20 -4.93 9.51 3.98 19.20 13.84 15.14z m55.70 -1.21 c1.21 -0.86 2.77 -3.20 3.46 -5.10 1.12 -3.03 1.12 -3.98 0 -6.75 -2.34 -6.14 -8.99 -8.82 -14.96 -6.05 -7.52 3.63 -7.70 15.14 -0.35 18.94 3.46 1.73 8.74 1.30 11.85 -1.04z m13.23 -2.51 c0.17 -2.85 0.69 -5.02 1.30 -5.19 0.61 -0.26 2.16 1.38 3.46 3.55 1.30 2.16 2.68 3.98 3.11 3.98 0.35 0 2.08 -2.25 3.89 -4.93 l3.20 -5.02 0.86 5.97 c0.43 3.29 1.30 5.97 1.73 5.88 0.52 -0.09 0.95 -4.32 1.12 -10.12 0.26 -12.28 -0.61 -12.80 -6.05 -3.46 -2.08 3.55 -3.98 6.40 -4.32 6.49 -0.26 0 -2.25 -2.85 -4.32 -6.23 -2.16 -3.46 -4.50 -6.40 -5.28 -6.57 -1.30 -0.26 -1.47 0.86 -1.47 10.12 0 8.56 0.26 10.46 1.30 10.46 0.86 0 1.30 -1.30 1.47 -4.93z m40.91 3.72 c3.46 -1.47 6.49 -5.88 6.49 -9.60 0 -6.23 -6.57 -11.59 -12.80 -10.38 -1.82 0.35 -4.32 1.82 -5.97 3.46 -2.34 2.34 -2.85 3.55 -2.85 6.49 0 4.50 2.08 8.22 5.54 9.86 3.37 1.73 5.88 1.73 9.60 0.17z m16 -2.25 c0 -1.38 0.43 -2.77 0.95 -3.03 1.64 -1.12 5.02 0.43 6.49 3.03 0.86 1.38 2.16 2.77 2.85 3.03 2.25 0.86 2.77 -0.95 0.95 -3.20 -2.16 -2.77 -2.16 -3.37 0 -5.28 2.68 -2.25 2.59 -6.83 -0.26 -9.86 -1.56 -1.73 -2.68 -1.99 -8.13 -1.99 l-6.31 0 0 9.77 c0 5.45 0.26 10.03 0.52 10.38 1.12 1.12 2.94 -0.61 2.94 -2.85z m22.66 0.26 c0.26 -2.94 0.52 -3.29 2.94 -3.55 2.16 -0.26 3.03 0.26 4.76 2.77 1.90 2.85 4.41 4.32 5.45 3.29 0.26 -0.26 -0.43 -1.73 -1.64 -3.29 l-2.16 -2.85 2.16 -2.16 c2.59 -2.68 2.85 -6.40 0.43 -9.34 -1.99 -2.59 -5.45 -3.46 -10.81 -2.68 l-3.89 0.52 0 10.21 c0 8.39 0.26 10.29 1.21 10.29 0.86 0 1.38 -1.12 1.56 -3.20z m35.72 1.12 c5.19 -3.37 5.88 -11.68 1.38 -16.17 -6.66 -6.66 -18.25 -1.99 -18.25 7.35 0 8.48 9.69 13.49 16.86 8.82z m-284.97 -0.09 c0 -1.04 -1.21 -1.30 -5.62 -1.30 l-5.62 0 0 -3.03 0 -3.03 5.19 0 c4.06 0 5.19 -0.26 5.19 -1.30 0 -1.04 -1.12 -1.30 -5.19 -1.30 l-5.19 0 0 -3.03 0 -3.03 5.62 0 c4.41 0 5.62 -0.26 5.62 -1.30 0 -1.04 -1.38 -1.30 -7.35 -1.30 l-7.35 0 0 9.95 0 9.95 7.35 0 c5.97 0 7.35 -0.26 7.35 -1.30z m38.05 -7.35 l0 -8.65 3.55 0 c2.85 0 3.46 -0.26 3.20 -1.47 -0.26 -1.30 -1.47 -1.56 -8.74 -1.82 -7.87 -0.26 -8.39 -0.09 -8.39 1.47 0 1.38 0.69 1.73 3.29 1.99 l3.20 0.26 0.26 8.48 c0.17 7.70 0.35 8.39 1.90 8.39 1.64 0 1.73 -0.61 1.73 -8.65z m15.57 -1.30 c0 -9.34 -0.09 -9.95 -1.73 -9.95 -1.64 0 -1.73 0.61 -1.73 9.95 0 9.34 0.09 9.95 1.73 9.95 1.64 0 1.73 -0.61 1.73 -9.95z m10.38 3.89 c0 -4.41 0.35 -6.05 1.12 -6.05 0.61 0 3.29 2.68 5.79 6.05 6.92 8.82 7.78 8.39 7.78 -3.89 0 -9.60 -0.09 -9.95 -1.82 -9.95 -1.82 0 -1.82 0.35 -1.47 7.09 l0.43 7.01 -2.68 -2.94 c-1.47 -1.64 -4.24 -4.93 -6.23 -7.26 -2.51 -3.03 -3.89 -4.06 -4.93 -3.63 -1.30 0.43 -1.47 1.90 -1.47 10.12 0 8.91 0.09 9.51 1.73 9.51 1.56 0 1.73 -0.61 1.73 -6.05z m64 -2.59 l0 -8.65 3.37 0 c3.11 0 5.28 -1.21 4.15 -2.25 -0.26 -0.26 -4.15 -0.69 -8.74 -0.95 -8.04 -0.52 -8.30 -0.43 -8.30 1.38 0 1.47 0.52 1.82 3.03 1.82 l3.03 0 0 8.04 c0 8.22 0.26 9.25 2.34 9.25 0.86 0 1.12 -1.99 1.12 -8.65z m177.21 1.90 c1.21 -3.37 2.59 -6.14 2.94 -5.97 0.43 0.09 1.82 2.94 3.11 6.23 1.64 4.41 2.77 6.14 3.98 6.31 1.56 0.17 2.25 -1.12 5.10 -9.34 1.82 -5.28 3.11 -9.77 2.85 -10.12 -1.30 -1.21 -2.94 0.78 -4.41 5.45 -3.11 10.03 -3.37 10.12 -6.23 1.90 -3.46 -9.69 -4.93 -9.69 -8.30 -0.26 -1.38 3.81 -2.68 7.01 -2.85 7.18 -0.09 0.17 -1.30 -2.94 -2.59 -6.92 -2.68 -8.04 -3.46 -9.25 -4.84 -7.87 -0.69 0.69 -0.09 3.55 2.25 10.64 2.77 8.39 3.46 9.60 5.02 9.34 1.30 -0.17 2.25 -1.82 3.98 -6.57z m-294.31 -36.84 c11.50 -3.03 21.54 -11.33 26.55 -21.88 2.68 -5.62 2.77 -6.31 2.77 -16.69 0 -10.38 -0.09 -11.07 -2.77 -16.69 -3.11 -6.49 -10.03 -14.36 -15.48 -17.56 -12.71 -7.44 -28.89 -8.13 -42.55 -1.64 -12.63 5.97 -21.45 18.59 -22.40 32.09 -0.86 12.19 2.51 22.05 10.21 30.18 8.99 9.51 17.73 13.32 31.05 13.32 4.50 0.09 10.21 -0.43 12.63 -1.12z m107.42 -5.02 l0.26 -5.88 -21.28 0 -21.19 0 0 -33.73 0 -33.73 -6.49 0 -6.49 0 0 39.26 c0 30.62 0.26 39.35 1.12 39.70 0.52 0.26 12.89 0.43 27.42 0.35 l26.38 -0.17 0.26 -5.79z m-258.42 -20.15 c0 -19.81 0.26 -25.51 1.12 -25.51 0.52 0 6.66 9.25 13.58 20.50 10.64 17.38 12.89 20.58 15.05 21.10 1.38 0.43 3.11 0.35 3.89 0 0.69 -0.43 7.01 -10.03 14.01 -21.36 7.01 -11.33 13.15 -20.76 13.66 -20.93 0.69 -0.26 0.95 7.09 0.95 25.69 l0 26.03 6.05 0 6.05 0 -0.17 -39.09 -0.26 -39.18 -4.84 -0.26 -4.84 -0.26 -8.13 13.15 c-21.02 33.82 -23.96 38.40 -24.99 38.40 -0.61 0 -8.13 -11.50 -16.78 -25.51 l-15.74 -25.51 -5.36 -0.26 -5.36 -0.26 0 39.44 0 39.35 6.05 0 6.05 0 0 -25.51z m290.59 -13.84 l0 -39.44 -6.23 0.26 -6.31 0.26 -0.26 39.18 -0.17 39.09 6.49 0 6.49 0 0 -39.35z m35.37 29.84 l4.06 -9.08 21.02 0 21.02 0 4.06 9.08 4.15 9.08 6.57 0.26 c3.72 0.17 6.66 0 6.66 -0.35 0 -0.69 -14.27 -31.57 -27.50 -59.59 l-8.65 -18.16 -6.14 0 -6.23 0 -14.53 30.70 c-13.49 28.63 -21.71 46.44 -21.71 47.31 0 0.17 2.94 0.26 6.49 0.09 l6.57 -0.26 4.15 -9.08z m97.82 -16.52 c0 -18.51 0.26 -25.95 0.95 -25.69 0.52 0.17 6.66 9.60 13.58 21.02 10.98 17.82 13.06 20.76 15.31 21.36 1.90 0.52 3.11 0.26 4.58 -0.86 1.04 -0.78 7.35 -10.21 13.92 -20.93 6.66 -10.72 12.54 -19.55 13.23 -19.72 0.95 -0.17 1.12 4.41 1.12 25.08 l0 25.34 6.31 0.26 6.23 0.26 0 -39.44 0 -39.35 -5.54 0 -5.54 0 -2.59 4.58 c-6.75 11.68 -29.32 47.48 -30.10 47.57 -0.43 0 -7.44 -10.81 -15.65 -24.13 -8.13 -13.23 -15.48 -24.99 -16.26 -26.03 -1.12 -1.64 -2.16 -1.99 -6.49 -1.99 l-5.19 0 0 39.35 0 39.35 6.05 0 6.05 0 0 -26.03z m-251.07 -96.86 c3.29 -1.21 7.18 -4.93 8.56 -8.30 1.04 -2.34 1.21 -14.88 1.21 -70.14 0 -55.78 0.17 -67.55 1.21 -68.93 1.12 -1.56 2.42 -0.43 19.55 16.09 23.01 22.14 26.72 25.34 31.57 27.16 5.45 2.08 14.62 1.47 19.37 -1.38 1.90 -1.12 13.41 -11.50 25.60 -23.09 18.25 -17.30 22.40 -20.84 23.44 -19.98 1.04 0.86 1.21 8.22 1.21 48.69 0 54.14 -0.26 51.98 6.92 55.70 3.20 1.56 5.19 1.90 12.54 1.90 10.21 0 13.84 -1.38 16.17 -6.05 1.47 -2.85 1.56 -9.08 1.56 -92.54 0 -68.58 -0.26 -89.86 -1.04 -90.64 -2.16 -2.16 -4.67 -0.86 -13.15 7.44 -53.28 51.46 -71.09 67.98 -75.50 69.97 -5.97 2.77 -12.80 2.51 -18.77 -0.69 -2.51 -1.30 -18.16 -15.74 -42.55 -39.26 -21.28 -20.41 -39.52 -37.54 -40.65 -37.97 -1.38 -0.61 -2.42 -0.43 -3.29 0.35 -1.21 0.95 -1.38 8.22 -1.38 66.08 0 41.43 -0.35 66.08 -0.86 68.15 -0.52 1.73 -2.25 4.32 -3.98 5.79 -5.36 4.76 -13.84 3.03 -17.38 -3.55 -1.47 -2.68 -1.56 -7.70 -1.82 -80.69 -0.17 -56.30 0 -79.14 0.69 -82.42 2.25 -10.21 11.94 -15.74 20.41 -11.76 1.64 0.78 22.75 20.50 46.88 43.76 28.19 27.33 45.06 42.98 47.31 44.02 4.67 2.16 9.77 2.08 14.10 -0.26 3.20 -1.82 33.47 -30.36 75.85 -71.70 11.33 -10.98 15.65 -14.70 18.77 -15.83 7.09 -2.77 14.18 0.17 17.82 7.26 l1.90 3.81 0 115.29 c0 63.31 0.26 115.37 0.69 115.55 0.61 0.35 20.24 -13.32 40.13 -28.02 12.71 -9.43 17.47 -15.57 19.63 -25.69 0.69 -3.20 0.95 -28.97 0.95 -85.62 0 -88.99 0.17 -85.62 -5.28 -96.78 -4.32 -8.91 -11.16 -14.44 -35.11 -28.11 -11.42 -6.49 -40.74 -23.44 -65.21 -37.54 -65.21 -37.54 -63.39 -36.67 -77.32 -36.67 -13.84 0 -13.23 -0.26 -69.62 32.43 -20.67 11.94 -50.68 29.32 -66.68 38.49 -31.74 18.16 -36.24 21.54 -41.34 31.05 -5.36 10.12 -5.28 8.04 -5.28 97.38 0 69.54 0.17 82.08 1.30 86.83 3.37 14.18 8.39 18.94 51.46 49.12 25.86 18.08 43.24 29.41 47.22 30.88 4.06 1.56 8.91 1.73 12.19 0.43z"/>
  <path d="M323.11 638.96 c-4.84 -4.41 -1.82 -12.80 4.67 -12.80 3.72 0 7.78 4.06 7.78 7.78 0 6.05 -7.78 9.17 -12.45 5.02z"/>
  <path d="M555.24 638.70 c-2.94 -3.20 -2.85 -7.78 0.35 -10.46 7.44 -6.49 17.04 3.89 10.03 10.90 -2.59 2.59 -7.78 2.34 -10.38 -0.43z"/>
  <path d="M611.98 639.05 c-1.82 -1.38 -2.25 -2.51 -2.25 -5.54 0 -3.03 0.43 -4.15 2.25 -5.54 1.30 -1.04 3.55 -1.82 5.10 -1.82 3.98 0 6.49 2.34 7.09 6.66 0.43 3.03 0.17 3.89 -1.73 5.79 -2.77 2.77 -7.18 3.03 -10.46 0.43z"/>
  <path d="M637.41 630.49 l0 -4.32 3.46 0 c3.37 0 6.92 2.25 6.92 4.32 0 2.08 -3.55 4.32 -6.92 4.32 l-3.46 0 0 -4.32z"/>
  <path d="M660.24 633.60 c-0.26 -0.69 -0.35 -2.51 -0.17 -4.15 0.26 -2.59 0.52 -2.85 3.46 -3.11 1.73 -0.17 3.98 0.17 5.02 0.69 2.34 1.21 2.25 4.76 -0.17 6.40 -2.42 1.73 -7.52 1.82 -8.13 0.17z"/>
  <path d="M684.54 638.88 c-3.37 -2.85 -3.37 -7.87 -0.09 -10.64 3.29 -2.85 6.92 -2.68 10.12 0.43 2.68 2.68 3.11 5.10 1.47 8.13 -2.34 4.50 -7.61 5.45 -11.50 2.08z"/>
  <path d="M400.69 588.28 c-12.71 -4.50 -19.29 -13.75 -19.29 -27.24 0 -9.08 1.90 -13.84 7.70 -19.72 6.66 -6.57 12.63 -8.82 22.14 -8.39 8.30 0.43 13.75 2.77 19.03 7.96 5.88 5.97 7.78 10.81 7.78 20.41 0 7.01 -0.35 8.91 -2.08 12.54 -2.59 5.19 -9.77 12.28 -14.44 14.10 -5.19 2.08 -15.48 2.25 -20.84 0.35z"/>
  <path d="M606.70 569.95 c-0.26 -0.43 3.29 -8.56 11.07 -25.34 1.73 -3.81 3.63 -6.66 4.15 -6.49 0.95 0.35 14.62 29.41 14.62 31.22 0 0.78 -3.89 1.04 -14.79 1.04 -8.13 0 -14.88 -0.17 -15.05 -0.43z"/>
 </g>
</svg>